<svg xmlns="http://www.w3.org/2000/svg" viewBox="0 0 256 256"><defs>
  <linearGradient id="bg" x1="0" y1="0" x2="0" y2="1">
    <stop offset="0" stop-color="#2d2d36"/>
    <stop offset="0.55" stop-color="#1d1d24"/>
    <stop offset="1" stop-color="#141419"/>
  </linearGradient>
  <radialGradient id="glow" cx="0.5" cy="-0.12" r="0.95">
    <stop offset="0" stop-color="#8b7cf8" stop-opacity="0.42"/>
    <stop offset="0.55" stop-color="#8b7cf8" stop-opacity="0.08"/>
    <stop offset="1" stop-color="#8b7cf8" stop-opacity="0"/>
  </radialGradient>
  <linearGradient id="sheen" x1="0" y1="0" x2="0" y2="1">
    <stop offset="0" stop-color="#ffffff" stop-opacity="0.13"/>
    <stop offset="0.6" stop-color="#ffffff" stop-opacity="0.02"/>
    <stop offset="1" stop-color="#ffffff" stop-opacity="0"/>
  </linearGradient>
  <clipPath id="clip"><rect x="8" y="8" width="240" height="240" rx="56"/></clipPath>
</defs>
<g clip-path="url(#clip)">
  <rect x="8" y="8" width="240" height="240" rx="56" fill="url(#bg)"/>
  <rect x="8" y="8" width="240" height="240" fill="url(#glow)"/>
  <rect x="8" y="8" width="240" height="150" fill="url(#sheen)"/>
</g>
<!-- 无描边框：圆角外保持全透明，桌面底色自然透出 -->

<g fill="#f4f5ff">
  <rect x="86" y="140" width="27" height="27" rx="5"/>
  <rect x="117" y="140" width="27" height="27" rx="5"/>
  <rect x="148" y="140" width="27" height="27" rx="5"/>
  <rect x="102" y="109" width="27" height="27" rx="5"/>
  <rect x="133" y="109" width="27" height="27" rx="5"/>
</g>
<path d="M58 184 q70 26 140 0" fill="none" stroke="#f4f5ff"
      stroke-width="11" stroke-linecap="round"/>
</svg>